<svg xmlns="http://www.w3.org/2000/svg" width="244" height="123" viewBox="0 0 244 123">
  <g fill="#7F3737" fill-rule="evenodd">
    <path fill="#FFF29B" d="M17.1425839,60.8408972 C37.341185,42.9446201 67.7073102,25.2128762 97.812226,19.9574449 C116.654917,16.6680663 151.591753,12.9121797 186.548832,25.0678764 C277.356742,56.6446969 236.476927,54.9639774 223.858542,71.0617602 C211.240157,87.1595431 188.22945,67.9955013 114.954525,67.9955013 C41.6796,67.9955013 54.0427111,133.564627 29.2430302,121.143989 C4.44334924,108.723352 -15.6983378,89.9384684 17.1425839,60.8408972 Z" transform="rotate(180 122 69.71)"/>
    <path fill="#FFE869" d="M22.6926518,59.0537694 C41.1528488,44.02765 68.905496,29.1396763 96.4194149,24.7270972 C113.640399,21.9652605 145.570376,18.811733 177.518854,29.0179313 C260.511329,55.5305447 223.149858,54.1193745 211.617482,67.6354375 C200.085106,81.1515004 179.054828,65.0609371 112.086352,65.0609371 C45.1178756,65.0609371 56.4169484,120.114259 33.7516663,109.685611 C11.0863841,99.2569625 -7.32179714,83.484749 22.6926518,59.0537694 Z" transform="rotate(180 118.525 66.5)"/>
    <path stroke="#979797" stroke-linecap="square" d="M177.525454,0.5 L177.525454,67.430332"/>
    <rect width="25" height="17" x="153.025" fill="#000"/>
    <circle cx="165.525" cy="6.5" r="3.5" fill="#FFF"/>
    <circle cx="165.525" cy="6.5" r="3.5" fill="#FFF"/>
    <circle cx="164.025" cy="6" r="1" fill="#000"/>
    <circle cx="167.025" cy="6" r="1" fill="#000"/>
    <path stroke="#000" stroke-linecap="square" d="M165.025454,8.5 L166.025454,8.5"/>
    <path stroke="#FFF" stroke-linecap="square" d="M162.525454,13.5 L168.525454,11"/>
    <path stroke="#FFF" stroke-linecap="square" d="M162.525454,13.5 L168.525454,11" transform="matrix(-1 0 0 1 331.05 0)"/>
  </g>
</svg>
