<svg xmlns="http://www.w3.org/2000/svg" width="149" height="115" viewBox="0 0 149 115">
  <g fill="#7F3737" fill-rule="evenodd">
    <polygon fill="#A79458" fill-rule="nonzero" points="0 80 124 80 114.815 86.333 84.044 99 14.316 99"/>
    <polygon fill="#252C4D" fill-rule="nonzero" points="5 86 115 86 84.228 99 14.494 99"/>
    <rect width="3" height="80" x="61" fill="#D8D8D8"/>
    <g transform="translate(18 65)">
      <polygon fill="#D0021B" points="12.65 1.411 12.88 1.861 12.402 1.871" transform="rotate(20 12.64 1.64)"/>
      <polygon fill="#B5FFF6" points="10 1 12 1 11.2 3 11.2 4.5 12 5 10 5 10.8 4.5 10.8 3"/>
      <rect width="4" height="6" x="3" y="3" fill="#FFD6D6"/>
      <rect width="4" height="1" y="3" fill="#FFD6D6"/>
      <rect width="4" height="1" x="7" y="3" fill="#FFD6D6"/>
      <rect width="2" height="2" x="4" fill="#FFD6D6"/>
      <polygon fill="#8B572A" points="4 0 6 0 6 .5 4.5 .5 4 1 4 .5"/>
      <rect width="1" height="1" x="5" y="2" fill="#FFD6D6"/>
      <rect width="1" height="5" x="3" y="9" fill="#FFD6D6"/>
      <rect width="1" height="5" x="6" y="9" fill="#FFD6D6"/>
      <polygon fill="#4A90E2" points="3 8 7 8 7 11 5.5 11 5.5 9.5 4.5 9.5 4.5 11 3 11"/>
    </g>
    <g transform="translate(36 65)">
      <rect width="4" height="6" x="4" y="3" fill="#E29A9A"/>
      <polygon fill="#E29A9A" points="1.022 3.837 4.653 3.847 4.656 4.752 1.025 4.742" transform="rotate(-28 2.839 4.294)"/>
      <polygon fill="#E29A9A" points="6.64 4.323 10.26 4.312 10.258 5.219 6.637 5.23" transform="rotate(55 8.449 4.77)"/>
      <rect width="2" height="2" x="5" fill="#E29A9A"/>
      <polygon fill="#000" points="5 0 7 0 7 .5 5.5 .5 5 1 5 .5"/>
      <rect width="1" height="1" x="5" y="2" fill="#E29A9A"/>
      <rect width="1" height="5" x="4" y="9" fill="#E29A9A"/>
      <rect width="1" height="5" x="6" y="9" fill="#E29A9A"/>
      <polygon fill="#417505" points="4 8 8 8 8 11 6.5 11 6.5 9.5 5.5 9.5 5.5 11 4 11"/>
    </g>
    
  </g>
</svg>
