<svg xmlns="http://www.w3.org/2000/svg" width="239" height="217" viewBox="0 0 239 217">
  <g fill="#7F3737" fill-rule="evenodd" transform="translate(0 -17.844)">
    <rect width="7" height="26" x="3" y="185.844" fill="#9E743E"/>
    <rect width="7" height="26" x="43" y="185.844" fill="#9E743E"/>
    <ellipse cx="142.5" cy="209.344" fill="#FFF29B" rx="96.5" ry="25.5"/>
    <ellipse cx="142.5" cy="193.344" fill="#FFF29B" rx="79.5" ry="25.5"/>
    <path fill="#9E743E" d="M115,20.8440223 L121,20.8440223 C144.502106,60.3334539 158.835439,92.6667872 164,117.844022 C169.164561,143.021257 169.164561,162.687924 164,176.844022 L143,176.844022 C150,161.732911 153.5,143.066245 153.5,120.844022 C153.5,98.6218001 140.666667,65.2884667 115,20.8440223 Z"/>
    
    <rect width="98" height="8" x=".5" y="181.344" fill="#9E743E" stroke="#6B4A20"/>
    <polygon fill="#6B4A20" points="12 177.844 80 177.844 99 180.844 0 180.844"/>
  </g>
</svg>
