<svg enable-background="new -0.826 -0.359 281 285" height="285" viewBox="-.826 -.359 281 285" width="281" xmlns="http://www.w3.org/2000/svg"><path clip-rule="evenodd" d="m113.433 30.168c0 13.984-10.961 25.318-24.484 25.316-13.523-.005-24.489-11.344-24.489-25.329s10.962-25.319 24.484-25.316c13.523.007 24.489 11.345 24.489 25.329z" fill="#010101" fill-rule="evenodd" stroke="#010101" stroke-width="9.6086"/><path d="m39.651 46.68c-44.969 43.663-50.07 140.646-1.164 192.438 51.409 54.444 145.329 53.947 195.813 3.567 51.877-51.769 54.604-131.891 8.549-188.207-50.37-61.586-138.314-70.8-203.198-7.798z" fill="#dcd1c9"/><path d="m39.651 46.68c-44.969 43.663-50.07 140.646-1.164 192.438 51.409 54.444 145.329 53.947 195.813 3.567 51.877-51.769 54.604-131.891 8.549-188.207-50.37-61.586-138.314-70.8-203.198-7.798z" fill="none"/><path d="m36.934 43.962c-30.096 29.6-40.139 75.698-36.072 116.556 2.165 21.755 8.708 43.123 20.062 61.861 11.465 18.922 28.43 34.059 47.793 44.567 38.533 20.912 87.19 22.636 127.435 5.596 42.95-18.185 73.317-58.809 81.129-104.54 8.081-47.314-9.347-95.687-43.426-128.983-32.694-31.943-79.325-45.709-123.999-35.916-27.706 6.074-52.639 21.345-72.922 40.859-3.578 3.442 1.864 8.871 5.436 5.436 35.482-34.137 84.699-50.869 132.869-36.563 46.25 13.736 81.641 54.486 92.779 100.845 11.391 47.407-5.127 98.258-41.2 130.783-33.292 30.017-82.76 38.231-125.342 27.153-22.003-5.724-42.288-17.146-58.358-33.236-15.779-15.8-25.755-36.354-31.091-57.858-10.125-40.805-3.8-90.13 23.262-123.42 2.202-2.709 4.594-5.257 7.082-7.704 3.536-3.48-1.902-8.913-5.437-5.436z" fill="#010101"/><path clip-rule="evenodd" d="m253.34 71.086s-21.447 73.052-144.24 113.348" fill="none" opacity=".22" stroke="#010101" stroke-width="4.2158"/><path clip-rule="evenodd" d="m50.023 37.374s16.015 107.296 184.966 205.785" fill="none" opacity=".22" stroke="#010101" stroke-width="4.2158"/><path d="m174.355 101.981c-43.021-7.701-111.662 3.068-137.524 26.602-39.524 35.657 16.247 121.859 56.42 133.004 52.411 14.541 116.388 7.237 143.871-45.502 32.469-64.455-4.94-99.36-60.651-114.104" fill="#010101"/><path d="m174.355 101.981c-43.021-7.701-111.662 3.068-137.524 26.602-39.524 35.657 16.247 121.859 56.42 133.004 52.411 14.541 116.388 7.237 143.871-45.502 32.469-64.455-4.94-99.36-60.651-114.104" fill="none"/><path d="m175.788 99.106c-22.491-3.917-45.875-2.992-68.383.283-21.383 3.111-43.581 8.509-62.346 19.588-14.892 8.792-24.576 21.822-25.77 39.378-1.249 18.36 5.922 36.67 14.672 52.43 9.148 16.477 21.649 31.662 36.767 42.994 15.058 11.288 33.858 14.645 52.219 16.477 42.724 4.263 88.239-8.147 113.104-45.316 15.824-23.655 24.019-56.618 9.717-82.75-13.166-24.056-41.782-36.14-66.927-42.883-3.38-.906-9.645 4.035-4.738 5.351 19.54 5.24 39.436 13.162 54.013 27.673 13.713 13.652 18.818 31.942 16.123 50.89-3.305 23.229-15.872 46.106-34.214 60.756-17.037 13.607-38.688 19.634-60.147 21.017-11.116.716-22.279-.017-33.288-1.619-9.442-1.374-19.371-3.145-28.102-7.137-16.275-7.442-29.36-22.438-39.418-36.794-10.987-15.681-19.566-34.055-21.424-53.286-.806-8.338.27-16.99 3.752-24.637 3.572-7.842 10.018-13.394 17.18-17.892 17.482-10.98 39.337-15.744 59.494-18.676 21.364-3.108 43.522-3.81 64.854-.096 3.896.679 8.313-4.802 2.862-5.751z" fill="#010101"/><path d="m250.235 163.193c-5.812-31.253-35.123-50.524-72.66-60.612h-2.145c-43.628-7.931-113.24 3.161-139.468 27.398-10.321 9.456-14.197 22.372-13.625 36.523l4.348 3.13c8.622 7.931 17.963-3.604 22.99-9.373 6.469-7.93 9.343-12.977 19.403-15.86 9.341-3.606 18.684-2.884 28.019-4.326 8.624-1.442 15.096-5.046 23.713-5.768 7.906-.721 15.093-5.768 22.996-2.884 3.597.721 6.468 2.884 10.058 3.605 4.317 0 8.623-1.442 12.938-.721 5.03 1.442 6.466 5.768 11.495 7.21 5.749 1.441 7.902 1.441 12.934 5.048 4.314 2.163 7.907 5.045 12.217 7.208 5.747 2.883 10.058 1.443 15.087 2.883 6.472 2.164 7.182 10.095 15.092 10.814 4.312 0 12.214-1.439 15.808-3.603z" fill="#ed1b6a"/><path d="m98.567 263.236c50.975 14.76 109.2 2.759 136.183-45.144.402-.735.743-1.448 1.124-2.178l-2.929-2.908c0-.634-.696-2.543-1.388-3.178-11.829-13.353-41.738 21.617-55.656 19.074-5.565-1.271-5.565-5.725-12.519-3.817-4.176.639-7.652 3.817-11.826 4.453-5.562 1.907-5.562-.636-10.437-.636-3.475-.636-7.651 1.271-11.128 1.907-11.132 1.907-18.086-1.271-27.134-5.086-6.953-3.178-15.303-5.086-22.255-8.268-5.566-2.542-31.306-16.53-34.782-4.45 0 0-1.272 1.979-2.911 4.764 13.961 20.419 29.309 37.838 55.658 45.467z" fill="#ed1b6a"/><g fill="#fff"><path d="m88.249 157.79c6.698 2.19 16.259-6.914 17.8-13.337 1.535-8.641-2.75-23.457-11.903-26.308-10.047-3.29-28.312 4.297-30.956 14.044-3.752 13.073 11.67 23.428 22.827 25.609"/><path d="m90.08 235.423c.705-2.8 4.232-10.5 9.167-12.601 7.054-2.8 16.222 2.101 19.042 8.399 4.938 8.401 0 18.898-8.463 19.601-10.579 1.399-17.631-4.2-20.451-12.601"/><path d="m79.232 236.037c9.167-3.502 3.55-27.247-8.463-22.401-17.366 7-2.998 25.726 8.288 22.226"/><path d="m126.639 252.798c-10.073-22.721 15.564-39.986 31.131-24.539 7.322 7.271 9.04 23.288-1.948 27.832-6.408 2.725-23.692 2.159-29.183-3.293"/><path d="m50.407 213.636c0-7.001 9.875-9.801 11.99-1.401 2.116 11.199-12.696 6.827-11.903 1.314"/><path d="m194.573 241.075c5.755-10.238-17.841-27.873-25.184-14.225-10.609 19.727 17.177 26.05 24.887 14.197"/><path d="m196.846 228.575c-.241-1.773.016-7.014 2.379-9.352 3.42-3.218 9.84-2.478 12.921.511 4.787 3.723 4.364 10.9-.356 13.23-5.777 3.211-11.137 1.593-14.702-2.614"/><path d="m216.494 212.062c0-7.002 9.875-9.803 11.989-1.401 2.116 11.2-12.695 6.824-11.903 1.313"/><path d="m59.668 149.918c.314 2.627-.19 10.368-3.735 13.762-5.132 4.677-14.6 3.434-19.084-1.06-6.985-5.614-6.186-16.212.844-19.543 8.613-4.61 16.496-2.085 21.666 4.21"/><path d="m184.648 158.552c-6.402 2.938-16.947-5.027-19.219-11.233-2.516-8.407.036-23.615 8.801-27.482 9.604-4.405 28.62 1.061 32.369 10.445 5.229 12.562-8.9 24.596-19.734 28.025"/><path d="m207.767 150.477c-.341 2.864.208 11.304 4.072 15.005 5.597 5.096 15.921 3.741 20.806-1.158 7.618-6.12 6.745-17.673-.918-21.306-9.391-5.028-17.984-2.273-23.621 4.589"/></g><circle cx="36.818" cy="77.957" fill="#010101" r="19.355"/><circle cx="237.251" cy="76.863" fill="#010101" r="22.024"/><circle clip-rule="evenodd" cx="36.677" cy="76.608" fill="#fff" fill-rule="evenodd" r="16.548"/><circle clip-rule="evenodd" cx="237.924" cy="76.074" fill="#fff" fill-rule="evenodd" r="19.217"/><path clip-rule="evenodd" d="m187.23 11.758c-13.361 38.694-59.96 40.978-115.854 73.392" fill="none" opacity=".22" stroke="#010101" stroke-width="2.4"/><circle clip-rule="evenodd" cx="62.383" cy="43.059" fill="#f7f8f8" fill-rule="evenodd" r="5.072"/><path d="m65.342 42.071h-1.973v-1.971h-1.973v1.971h-1.971v1.975h1.971v1.972h1.973v-1.972h1.973z" fill="#9f9f9f"/><circle clip-rule="evenodd" cx="68.255" cy="56.778" fill="#f7f8f8" fill-rule="evenodd" r="5.072"/><path d="m71.213 55.79h-1.973v-1.971h-1.972v1.971h-1.972v1.975h1.972v1.971h1.972v-1.971h1.973z" fill="#9f9f9f"/><ellipse clip-rule="evenodd" cx="50.106" cy="130.595" fill="#f7f8f8" fill-rule="evenodd" rx="5.072" ry="3.111" transform="matrix(.8929 -.4502 .4502 .8929 -53.4242 36.5359)"/><path d="m52.476 128.724-1.762.887-.545-1.079-1.762.888.544 1.08-1.759.886.544 1.082 1.76-.888.545 1.081 1.762-.887-.544-1.083 1.761-.888z" fill="#9f9f9f"/><ellipse clip-rule="evenodd" cx="170.956" cy="251.875" fill="#f7f8f8" fill-rule="evenodd" rx="5.072" ry="3.644"/><path d="m173.912 251.166h-1.972v-1.416h-1.971v1.416h-1.973v1.417h1.973v1.417h1.971v-1.417h1.972z" fill="#9f9f9f"/><circle clip-rule="evenodd" cx="248.846" cy="109.625" fill="#f7f8f8" fill-rule="evenodd" r="5.071"/><path d="m251.805 108.637h-1.974v-1.971h-1.973v1.971h-1.971v1.975h1.971v1.972h1.973v-1.972h1.974z" fill="#9f9f9f"/><path clip-rule="evenodd" d="m107.625 29.171c0 10.696-8.384 19.365-18.727 19.363-10.343-.003-18.73-8.676-18.73-19.373s8.385-19.365 18.728-19.362c10.342.004 18.729 8.676 18.729 19.372z" fill="#e54097" fill-rule="evenodd"/><path clip-rule="evenodd" d="m99.555 29.17c0 5.887-4.771 10.657-10.656 10.655-5.885 0-10.657-4.776-10.66-10.66 0-5.888 4.771-10.658 10.656-10.657 5.886.002 10.66 4.775 10.66 10.662z" fill="#ad208e" fill-rule="evenodd"/><path d="m88.895 7.848c-11.386-.002-20.613 9.54-20.613 21.314 0 11.772 9.23 21.32 20.617 21.323 11.385.003 20.612-9.539 20.612-21.312s-9.233-21.32-20.616-21.325zm.005 39.513c-9.646-.002-17.494-8.166-17.494-18.199 0-4.88 1.832-9.462 5.158-12.901 3.299-3.412 7.678-5.29 12.33-5.289 9.646.004 17.493 8.169 17.493 18.2 0 4.88-1.832 9.462-5.158 12.901-3.299 3.412-7.678 5.289-12.329 5.288z" fill="#f490af"/><path clip-rule="evenodd" d="m103.231 19.386c0 3.882-3.143 7.027-7.024 7.026-3.887 0-7.03-3.149-7.033-7.03 0-3.882 3.146-7.027 7.027-7.026 3.884.002 7.03 3.149 7.03 7.03z" fill="#f490af" fill-rule="evenodd"/><circle clip-rule="evenodd" cx="100.37" cy="26.965" fill="#fff" fill-rule="evenodd" r="3.905"/><path clip-rule="evenodd" d="m101.996 34.82c0 1.424-1.154 2.577-2.581 2.577-1.423 0-2.575-1.156-2.575-2.579 0-1.424 1.152-2.576 2.575-2.575 1.423 0 2.581 1.154 2.581 2.577z" fill="#fff" fill-rule="evenodd"/><path clip-rule="evenodd" d="m134.252 19.146c0 5.71-4.476 10.339-9.998 10.337s-10-4.632-10-10.343 4.476-10.339 9.998-10.338c5.522.003 10 4.633 10 10.344z" fill="#e54097" fill-rule="evenodd"/><circle clip-rule="evenodd" cx="124.253" cy="19.143" fill="#ad208e" fill-rule="evenodd" r="5.69"/><path d="m124.252 7.761c-6.079-.001-11.005 5.093-11.005 11.38 0 6.285 4.927 11.382 11.007 11.384 6.079.001 11.005-5.093 11.005-11.379s-4.93-11.382-11.007-11.385zm.002 21.096c-5.149-.001-9.339-4.36-9.339-9.716 0-2.606.978-5.052 2.754-6.889 1.761-1.821 4.099-2.824 6.583-2.823 5.149.002 9.339 4.361 9.339 9.717 0 2.605-.978 5.051-2.754 6.888-1.761 1.821-4.099 2.824-6.583 2.823z" fill="#f490af"/><circle clip-rule="evenodd" cx="128.154" cy="13.92" fill="#f490af" fill-rule="evenodd" r="3.753"/><circle clip-rule="evenodd" cx="130.378" cy="17.967" fill="#fff" fill-rule="evenodd" r="2.085"/><circle clip-rule="evenodd" cx="129.87" cy="22.161" fill="#fff" fill-rule="evenodd" r="1.376"/></svg>