<svg xmlns="http://www.w3.org/2000/svg" width="96" height="46" viewBox="0 0 96 46">
  <path fill="#1C8A26" fill-rule="evenodd" d="M42.7241837,22 C57.0563596,22 77.814965,29.3395002 105,44.0185007 C79.8313969,38.0710281 61.0668182,36.2744874 48.7062639,38.6288787 C36.3457096,40.98327 20.1102883,42.7798107 0,44.0185007 C14.1506133,29.3395002 28.3920079,22 42.7241837,22 Z" transform="rotate(25 3.112 43.986)"/>
  <path fill="#1C8A26" fill-rule="evenodd" d="M42.7241837,22 C57.0563596,22 77.814965,29.3395002 105,44.0185007 C79.8313969,38.0710281 61.0668182,36.2744874 48.7062639,38.6288787 C36.3457096,40.98327 20.1102883,42.7798107 0,44.0185007 C14.1506133,29.3395002 28.3920079,22 42.7241837,22 Z" transform="rotate(25 3.112)"/>
  <path fill="#1C8A26" fill-rule="evenodd" d="M42.7241837,22 C57.0563596,22 77.814965,29.3395002 105,44.0185007 C79.8313969,38.0710281 61.0668182,36.2744874 48.7062639,38.6288787 C36.3457096,40.98327 20.1102883,42.7798107 0,44.0185007 C14.1506133,29.3395002 28.3920079,22 42.7241837,22 Z" transform="rotate(12 3.112 43.986)"/>
</svg>
