<svg xmlns="http://www.w3.org/2000/svg" width="245" height="147" viewBox="0 0 245 147">
  <g fill="#7F3737" fill-rule="evenodd" transform="translate(.975)">
    <path fill="#FFF29B" d="M17.1425839,84.8408972 C37.341185,66.9446201 67.7073102,49.2128762 97.812226,43.9574449 C116.654917,40.6680663 151.591753,36.9121797 186.548832,49.0678764 C277.356742,80.6446969 236.476927,78.9639774 223.858542,95.0617602 C211.240157,111.159543 188.22945,91.9955013 114.954525,91.9955013 C41.6796,91.9955013 54.0427111,157.564627 29.2430302,145.143989 C4.44334924,132.723352 -15.6983378,113.938468 17.1425839,84.8408972 Z"/>
    <path fill="#FFE869" d="M22.6926518,83.0537694 C41.1528488,68.02765 68.905496,53.1396763 96.4194149,48.7270972 C113.640399,45.9652605 145.570376,42.811733 177.518854,53.0179313 C260.511329,79.5305447 223.149858,78.1193745 211.617482,91.6354375 C200.085106,105.1515 179.054828,89.0609371 112.086352,89.0609371 C45.1178756,89.0609371 56.4169484,144.114259 33.7516663,133.685611 C11.0863841,123.256962 -7.32179714,107.484749 22.6926518,83.0537694 Z"/>
    <path stroke="#979797" stroke-linecap="square" d="M127.525454,0.5 L127.525454,67.430332"/>
    <rect width="25" height="17" x="103.025" fill="#000"/>
    <circle cx="115.525" cy="6.5" r="3.5" fill="#FFF"/>
    <circle cx="115.525" cy="6.5" r="3.5" fill="#FFF"/>
    <circle cx="114.025" cy="6" r="1" fill="#000"/>
    <circle cx="117.025" cy="6" r="1" fill="#000"/>
    <path stroke="#000" stroke-linecap="square" d="M115.025454,8.5 L116.025454,8.5"/>
    <path stroke="#FFF" stroke-linecap="square" d="M112.525454,13.5 L118.525454,11"/>
    <path stroke="#FFF" stroke-linecap="square" d="M112.525454,13.5 L118.525454,11" transform="matrix(-1 0 0 1 231.05 0)"/>
  </g>
</svg>
