<svg xmlns="http://www.w3.org/2000/svg" width="149" height="170" viewBox="0 0 149 170">
  <g fill="#7F3737" fill-rule="evenodd">
    <path fill="#FFF29B" d="M10.4682172,71.0699699 C22.8026089,42.5372262 41.3458575,14.2668043 59.729597,5.88786206 C71.2359942,0.643475402 92.5703737,-5.34468351 113.917115,14.0356255 C169.369486,64.3798016 144.405992,61.7001639 136.700503,87.3654969 C128.995014,113.03083 114.943394,82.4768388 70.1976402,82.4768388 C25.4518869,82.4768388 33.0014916,187.016293 17.8574242,167.213579 C2.71335671,147.410865 -9.58628008,117.461381 10.4682172,71.0699699 Z" transform="rotate(180 74.5 85.21)"/>
    <path fill="#FFE869" d="M24.7118049,82.0002559 C34.9766678,60.3896571 50.4086331,38.97774 65.7078525,32.6315588 C75.2836462,28.659479 93.0384318,24.1240687 110.803505,38.802646 C156.951787,76.9331462 136.176799,74.9035981 129.764177,94.3424302 C123.351555,113.781262 111.657589,90.6397779 74.4195127,90.6397779 C37.1814361,90.6397779 43.4643286,169.81759 30.8612121,154.819084 C18.2580955,139.820579 8.02215618,117.136946 24.7118049,82.0002559 Z" transform="rotate(180 78 92.71)"/>
    <path stroke="#979797" stroke-linecap="square" d="M95.5254543,32.5 L95.5254543,99.430332"/>
    <rect width="25" height="17" x="71.025" y="32" fill="#000"/>
    <circle cx="83.525" cy="38.5" r="3.5" fill="#FFF"/>
    <circle cx="83.525" cy="38.5" r="3.5" fill="#FFF"/>
    <circle cx="82.025" cy="38" r="1" fill="#000"/>
    <circle cx="85.025" cy="38" r="1" fill="#000"/>
    <path stroke="#000" stroke-linecap="square" d="M83.0254543,40.5 L84.0254543,40.5"/>
    <path stroke="#FFF" stroke-linecap="square" d="M80.5254543,45.5 L86.5254543,43"/>
    <path stroke="#FFF" stroke-linecap="square" d="M80.5254543,45.5 L86.5254543,43" transform="matrix(-1 0 0 1 167.05 0)"/>
  </g>
</svg>
